<?xml version="1.0" encoding="utf-8"?>
<!-- Generator: Adobe Illustrator 25.1.0, SVG Export Plug-In . SVG Version: 6.00 Build 0)  -->
<svg version="1.1" id="Layer_1" xmlns="http://www.w3.org/2000/svg" xmlns:xlink="http://www.w3.org/1999/xlink" x="0px" y="0px"
	 viewBox="0 0 50 56.7" style="enable-background:new 0 0 50 56.7;" xml:space="preserve">
<path d="M38.5,17.7c-5.3,0-9.3,3.5-10.9,9c-2.5-3.9-4.5-8.3-5.6-12.1h-5.6v14.7c0,2.9-2.4,5.3-5.3,5.3s-5.3-2.4-5.3-5.3V14.7H0.4
	v14.7c0,6.1,4.9,11,10.9,11s10.9-4.9,10.9-11v-2.5c1.1,2.2,2.5,4.6,4,6.7l-3.5,16.3h5.7L30.8,38c2.2,1.4,4.7,2.2,7.7,2.2
	c6.1,0,11.1-5,11.1-11.4C49.6,22.7,44.6,17.7,38.5,17.7z M38.5,34.6c-2.2,0-4.5-1-6.3-2.5l0.6-2.2v-0.1c0.4-2.4,1.7-6.4,5.8-6.4
	c3.1,0,5.6,2.5,5.6,5.6C44.1,32.1,41.4,34.6,38.5,34.6z"/>
</svg>
