<?xml version="1.0" encoding="UTF-8"?>
<svg xmlns="http://www.w3.org/2000/svg" width="128" height="128" viewBox="0 0 128 128"><path d="M37.246 23.77a39.017 39.017 0 0110.23 1.148 22.5 22.5 0 017.967 3.115A13.115 13.115 0 0160.557 34a22.623 22.623 0 011.705 9.082c0 3.934-.852 7.377-2.852 9.934a21.187 21.187 0 01-7.967 6.558A19.016 19.016 0 0162.23 66.95a22.18 22.18 0 013.704 12.459 22.623 22.623 0 01-2.262 10.23 19.016 19.016 0 01-6.23 7.114 28.197 28.197 0 01-9.081 3.934 43.935 43.935 0 01-10.23 1.41H.098V23.77zM34.95 55.574a12.837 12.837 0 007.672-2.295c2-1.443 2.852-3.935 2.852-7.115a10.82 10.82 0 00-.852-4.557 8.065 8.065 0 00-2.557-2.853 14.252 14.252 0 00-3.705-1.41 24.761 24.761 0 00-4.59-.328H17.377v18.46zm.82 33.606a25.246 25.246 0 004.82-.557 10.164 10.164 0 006.786-4.82 13.678 13.678 0 001.148-5.114c0-3.935-1.148-6.82-3.41-8.853a15.043 15.043 0 00-9.082-2.557H17.344v21.869zm54.852-.328c2.295 2.296 5.672 3.41 10.23 3.41a15.082 15.082 0 008.196-2.295 11.148 11.148 0 004.263-5.115h13.934c-2.295 6.82-5.672 11.64-10.23 14.755a30.367 30.367 0 01-16.491 4.59 33.443 33.443 0 01-12.23-2.263 22.623 22.623 0 01-9.082-6.262 21.967 21.967 0 01-5.672-9.377 33.443 33.443 0 01-2-12.23 33.298 33.298 0 011.967-11.934 30.164 30.164 0 015.967-9.672 28.852 28.852 0 019.082-6.262 32.131 32.131 0 0111.935-2.295 26.445 26.445 0 0112.787 2.852 23.372 23.372 0 018.852 7.672 34.426 34.426 0 015.115 10.787 59.257 59.257 0 01.557 12.46H86.69a16.393 16.393 0 003.934 11.081zm17.902-29.836c-1.968-1.967-5.115-3.114-8.853-3.114a13.256 13.256 0 00-6.23 1.41 14.627 14.627 0 00-3.934 3.114 7.869 7.869 0 00-1.967 3.935 20.758 20.758 0 00-.557 3.705h25.573a15.082 15.082 0 00-4-9.05zM83.607 29.18h31.803v7.672H83.607z"/></svg>