<?xml version="1.0" encoding="UTF-8"?>
<svg xmlns="http://www.w3.org/2000/svg" width="128" height="128" viewBox="0 0 128 128"><path d="M64 12.368c16.816 0 18.808.064 25.45.367a34.849 34.849 0 0111.694 2.168 19.513 19.513 0 017.241 4.712 19.513 19.513 0 014.712 7.241 34.849 34.849 0 012.168 11.695c.303 6.64.367 8.633.367 25.449s-.064 18.808-.367 25.45a34.849 34.849 0 01-2.168 11.694 20.857 20.857 0 01-11.953 11.953 34.849 34.849 0 01-11.695 2.168c-6.64.303-8.631.367-25.449.367s-18.81-.064-25.45-.367a34.849 34.849 0 01-11.694-2.168 19.513 19.513 0 01-7.241-4.712 19.513 19.513 0 01-4.712-7.241 34.849 34.849 0 01-2.168-11.695c-.303-6.64-.367-8.633-.367-25.449s.064-18.808.367-25.45a34.849 34.849 0 012.168-11.694 19.513 19.513 0 014.712-7.241 19.513 19.513 0 017.241-4.712 34.849 34.849 0 0111.695-2.168c6.64-.303 8.633-.367 25.449-.367M64 1.02c-17.104 0-19.25.072-25.967.379a46.226 46.226 0 00-15.287 2.927A30.872 30.872 0 0011.59 11.59a30.872 30.872 0 00-7.264 11.156A46.226 46.226 0 001.4 38.033c-.307 6.718-.38 8.863-.38 25.967s.073 19.25.38 25.967a46.226 46.226 0 002.927 15.287 30.872 30.872 0 007.264 11.156 30.872 30.872 0 0011.156 7.264 46.226 46.226 0 0015.287 2.927c6.718.307 8.863.38 25.967.38s19.25-.073 25.967-.38a46.226 46.226 0 0015.287-2.927 32.204 32.204 0 0018.42-18.42 46.226 46.226 0 002.927-15.287c.307-6.718.38-8.863.38-25.967s-.073-19.25-.38-25.967a46.226 46.226 0 00-2.927-15.287 30.872 30.872 0 00-7.264-11.156 30.872 30.872 0 00-11.156-7.264A46.226 46.226 0 0089.967 1.4c-6.718-.307-8.863-.38-25.967-.38z"/><path d="M64 31.659A32.341 32.341 0 1096.341 64 32.341 32.341 0 0064 31.659zm0 53.334A20.993 20.993 0 1184.993 64 20.993 20.993 0 0164 84.993z"/><circle cx="97.619" cy="30.381" r="7.558"/></svg>