<?xml version="1.0" encoding="UTF-8"?>
<svg width="128" height="128" viewBox="0 0 128 128"><path d="M98.974 30.068c-13.72.066-24.148 9.14-28.052 23.6a127.445 127.445 0 01-14.59-31.344l-14.44.068.2 38.276a13.722 13.722 0 01-27.444.13l-.2-38.276L0 22.592.2 60.87a28.163 28.163 0 1056.32-.27l-.03-6.5a122.622 122.622 0 0010.552 17.28l-8.83 42.288 14.8-.068 6.36-30.724a36.582 36.582 0 0019.88 5.684C115.14 88.49 128.08 75.434 128 58.82a28.973 28.973 0 00-29.024-28.754zm.206 43.692c-5.776.026-11.564-2.472-16.276-6.426l1.416-5.8v-.364c1.056-6.148 4.252-16.632 15.084-16.68a14.488 14.488 0 0114.514 14.376c-.326 8.306-7.154 14.84-14.74 14.874z" fill="#6fda44"/></svg>