<svg xmlns="http://www.w3.org/2000/svg" display="none">

    <symbol id="icon-behance" viewBox="0 0 48 48" class="glyph">
        <path
            d="M20 23c1 0 4-1.618 4-5.618C24 11.163 18.494 10 12.292 10c-1.172 0-4.745.002-7.292.001a3 3 0 00-3 3V35a3 3 0 003 3h11.8c4.419 0 8.165-3.496 8.2-7.915.047-6.076-5-7.085-5-7.085zM8 15h7a3 3 0 110 6H8v-6zm7.5 18H8v-7h7.5a3.5 3.5 0 110 7zM45.51 29a1.5 1.5 0 001.501-1.5c0-5.799-4.011-10.5-10-10.5-5.523 0-10 4.701-10 10.5s4.477 10.5 10 10.5c4.887 0 7.602-2.286 8.928-5.643.256-.647-.246-1.348-.942-1.348h-2.401c-.365 0-.688.207-.877.52C40.805 33.039 39.41 34 37.532 34c-2.812 0-4.86-2.135-5.382-5h13.36zm-8.499-8c2.077 0 4.09 1.656 4.658 4h-9.273c.753-2.349 2.535-4 4.615-4zM41.5 15h-8a1.5 1.5 0 010-3h8a1.5 1.5 0 010 3z" />
    </symbol>

    <symbol id="icon-instagram" viewBox="0 0 24 24" class="outline">
        <path
            d="M12,2c-2.95961,0-3.32053.01192-4.48607.06509a7.08527,7.08527,0,0,0-2.35423.44464A4.39607,4.39607,0,0,0,3.55459,3.55458,4.39608,4.39608,0,0,0,2.50973,5.1597a7.0852,7.0852,0,0,0-.44464,2.35422C2.01192,8.67947,2,9.04038,2,12s.01192,3.32053.06509,4.48607a7.08527,7.08527,0,0,0,.44464,2.35423,4.39607,4.39607,0,0,0,1.04485,1.60511A4.39608,4.39608,0,0,0,5.1597,21.49027a7.08527,7.08527,0,0,0,2.35423.44464C8.67939,21.98809,9.04029,22,12,22s3.32061-.01191,4.48607-.06509a7.08527,7.08527,0,0,0,2.35423-.44464,4.62955,4.62955,0,0,0,2.65-2.65,7.08527,7.08527,0,0,0,.44464-2.35423C21.98808,15.32053,22,14.95961,22,12s-.01192-3.32053-.06509-4.48607a7.08522,7.08522,0,0,0-.44464-2.35423,4.39607,4.39607,0,0,0-1.04485-1.60511A4.39608,4.39608,0,0,0,18.8403,2.50973a7.08527,7.08527,0,0,0-2.35423-.44464C15.32053,2.01192,14.95961,2,12,2" />
        <path d="M17.54683,6.13346a0.31971,0.31971 0 1,0 0.63942,0a0.31971,0.31971 0 1,0 -0.63942,0" />
        <circle cx="12" cy="12" r="4.65347" />
    </symbol>

    <symbol id="icon-upwork" viewBox="0 0 50 36" class="outline">
        <path
            d="M38.32583,10.01755A4.99643,4.99643,0,0,1,38,20c-2.27815,0-4.30714-1.41577-5.72085-2.54827.47269-1.99917.83081-3.51585.879-3.70368A4.9913,4.9913,0,0,1,38.32583,10.01755ZM22.16566,1H16V15.5a4.5,4.5,0,0,1-9,0V1H1V15.5a10.5,10.5,0,0,0,21,0v-.70507a33.38039,33.38039,0,0,0,3.63458,4.68085l0,0L21.97712,35h6.16426l2.64808-11.23981,0,0A13.94788,13.94788,0,0,0,38,26,11,11,0,1,0,27.438,11.91664,53.68686,53.68686,0,0,1,22.16566,1.01552Z" />
    </symbol>
</svg>