<svg xmlns="http://www.w3.org/2000/svg" viewBox="0 0 50 36">
    <path d="M38.32583,10.01755A4.99643,4.99643,0,0,1,38,20c-2.27815,0-4.30714-1.41577-5.72085-2.54827.47269-1.99917.83081-3.51585.879-3.70368A4.9913,4.9913,0,0,1,38.32583,10.01755ZM22.16566,1H16V15.5a4.5,4.5,0,0,1-9,0V1H1V15.5a10.5,10.5,0,0,0,21,0v-.70507a33.38039,33.38039,0,0,0,3.63458,4.68085l0,0L21.97712,35h6.16426l2.64808-11.23981,0,0A13.94788,13.94788,0,0,0,38,26,11,11,0,1,0,27.438,11.91664,53.68686,53.68686,0,0,1,22.16566,1.01552Z" fill="none" stroke="black" stroke-width="2"/>
</svg>
